<?xml version="1.0" ?><svg viewBox="0 0 24 24" xmlns="http://www.w3.org/2000/svg">
  <defs>
    <linearGradient id="gradient" x1="0%" y1="0%" x2="150%" y2="0%" gradientTransform="rotate(45)">
      <stop offset="0%"   stop-color="#274B74"/>
      <stop offset="50%" stop-color="#8233C5"/>
      <stop offset="100%" stop-color="#E963FD"/>
    </linearGradient>
  </defs>
  <path d="M19,5.5H12.72l-.32-1a3,3,0,0,0-2.84-2H5a3,3,0,0,0-3,3v13a3,3,0,0,0,3,3H19a3,3,0,0,0,3-3V8.5A3,3,0,0,0,19,5.5Zm1,13a1,1,0,0,1-1,1H5a1,1,0,0,1-1-1V5.5a1,1,0,0,1,1-1H9.56a1,1,0,0,1,.95.68l.54,1.64A1,1,0,0,0,12,7.5h7a1,1,0,0,1,1,1Z" fill="url(#gradient)"/>
</svg>
