<?xml version="1.0" encoding="UTF-8"?>
<svg width="21px" height="21px" viewBox="0 0 21 21" version="1.1" xmlns="http://www.w3.org/2000/svg" xmlns:xlink="http://www.w3.org/1999/xlink">
    <title>211903_github_social_icon</title>
    <defs>
        <filter id="filter-1">
            <feColorMatrix in="SourceGraphic" type="matrix" values="0 0 0 0 0.847000 0 0 0 0 0.847000 0 0 0 0 0.847000 0 0 0 1.000000 0"></feColorMatrix>
        </filter>
    </defs>
    <g id="Page-1" stroke="none" stroke-width="1" fill="none" fill-rule="evenodd">
        <g id="Desktop" transform="translate(-386.000000, -1432.000000)">
            <g id="Work" transform="translate(88.000000, 1343.000000)">
                <g id="211903_github_social_icon" transform="translate(0.000000, 56.000000)" filter="url(#filter-1)">
                    <g transform="translate(298.000000, 33.000000)">
                        <path d="M10.5,0.75 C11.8125,0.75 13.0875,1.0125 14.2875,1.5328125 C15.45,2.034375 16.490625,2.75625 17.3859375,3.675 C18.28125,4.59375 18.9890625,5.6671875 19.48125,6.8578125 C19.9921875,8.0953125 20.25,9.4078125 20.25,10.7625 C20.25,12.909375 19.5984375,14.9578125 18.365625,16.6828125 C17.775,17.5125 17.0625,18.2390625 16.25625,18.8484375 C15.515625,19.40625 14.709375,19.846875 13.85625,20.1703125 C13.85625,20.08125 13.85625,19.978125 13.85625,19.865625 C13.8609375,19.3078125 13.865625,18.46875 13.865625,17.503125 C13.865625,16.921875 13.771875,16.4484375 13.6359375,16.0734375 C15.3796875,15.684375 17.9484375,14.49375 17.9484375,10.1953125 C17.9484375,9.0421875 17.615625,8.015625 16.9546875,7.14375 C17.1,6.5390625 17.2125,5.475 16.715625,4.190625 L16.5890625,3.8578125 L16.2515625,3.7453125 C16.18125,3.721875 16.0265625,3.684375 15.7828125,3.684375 C15.24375,3.684375 14.334375,3.8671875 12.99375,4.74375 C12.196875,4.546875 11.3625,4.434375 10.5046875,4.434375 L10.5,4.434375 L10.4953125,4.434375 C9.6375,4.434375 8.7984375,4.546875 8.00625,4.74375 C6.665625,3.8671875 5.75625,3.6796875 5.2171875,3.6796875 C4.9734375,3.6796875 4.81875,3.721875 4.7484375,3.7453125 L4.4109375,3.8578125 L4.284375,4.190625 C3.7875,5.4796875 3.9,6.54375 4.0453125,7.14375 C3.384375,8.0203125 3.0515625,9.046875 3.0515625,10.1953125 C3.0515625,12.5203125 3.8015625,13.940625 4.7671875,14.8125 C4.3875,14.503125 3.8953125,14.2453125 3.3046875,14.203125 L3.28125,14.203125 L3.2578125,14.203125 L3.24375,14.203125 C2.6296875,14.203125 2.1984375,14.45625 2.0625,14.8921875 C1.8421875,15.5859375 2.521875,16.0640625 2.746875,16.2234375 L2.7703125,16.2515625 L2.840625,16.2796875 C2.915625,16.3265625 3.3140625,16.6078125 3.6328125,17.428125 C3.7265625,17.71875 3.928125,18.1078125 4.2703125,18.46875 C3.65625,17.94375 3.1078125,17.34375 2.634375,16.6828125 C1.4015625,14.9625 0.75,12.9140625 0.75,10.7671875 C0.75,9.4125 1.0078125,8.1 1.51875,6.8625 C2.0109375,5.6671875 2.7140625,4.5984375 3.6140625,3.6796875 C4.509375,2.7609375 5.5546875,2.0390625 6.7125,1.5375 C7.9125,1.0171875 9.1875,0.75 10.5,0.75 M4.9078125,14.9390625 C5.6953125,15.6 6.609375,15.91875 7.359375,16.0875 C7.321875,16.190625 7.2890625,16.2984375 7.2609375,16.4109375 C7.1015625,16.4578125 6.909375,16.4953125 6.7125,16.4953125 C6.2015625,16.4953125 5.821875,16.2421875 5.5125,15.703125 C5.4,15.4875 5.19375,15.2015625 4.9078125,14.9390625 M5.08125,19.0921875 C5.540625,19.340625 6.1171875,19.5046875 6.825,19.5046875 C6.928125,19.5046875 7.03125,19.5 7.1390625,19.4953125 C7.1390625,19.6265625 7.1390625,19.753125 7.14375,19.865625 C7.14375,19.978125 7.14375,20.08125 7.1484375,20.1703125 C6.4171875,19.8984375 5.728125,19.5375 5.08125,19.0921875 M10.5,0 C4.7015625,0 0,4.8234375 0,10.7671875 C0,15.525 3.009375,19.55625 7.18125,20.98125 C7.246875,20.9953125 7.303125,21 7.359375,21 C7.7484375,21 7.8984375,20.7140625 7.8984375,20.465625 C7.8984375,20.2078125 7.8890625,19.5328125 7.884375,18.6328125 C7.490625,18.721875 7.1390625,18.759375 6.825,18.759375 C4.8046875,18.759375 4.3453125,17.1890625 4.3453125,17.1890625 C3.8671875,15.946875 3.178125,15.6046875 3.178125,15.6046875 C2.2640625,14.9625 3.1734375,14.9390625 3.24375,14.9390625 C3.2484375,14.9390625 3.2484375,14.9390625 3.2484375,14.9390625 C4.303125,15.0328125 4.85625,16.059375 4.85625,16.059375 C5.38125,16.978125 6.084375,17.240625 6.7125,17.240625 C7.2046875,17.240625 7.65,17.08125 7.9125,16.959375 C8.00625,16.265625 8.278125,15.7921875 8.578125,15.5203125 C6.2484375,15.2484375 3.796875,14.325 3.796875,10.2 C3.796875,9.0234375 4.2046875,8.0625 4.875,7.3125 C4.7671875,7.040625 4.40625,5.94375 4.978125,4.4625 C4.978125,4.4625 5.053125,4.4390625 5.2125,4.4390625 C5.5921875,4.4390625 6.45,4.584375 7.865625,5.56875 C8.7046875,5.3296875 9.6,5.2125 10.4953125,5.2078125 C11.3859375,5.2125 12.2859375,5.3296875 13.125,5.56875 C14.540625,4.584375 15.3984375,4.4390625 15.778125,4.4390625 C15.9375,4.4390625 16.0125,4.4625 16.0125,4.4625 C16.584375,5.94375 16.2234375,7.040625 16.115625,7.3125 C16.7859375,8.0671875 17.19375,9.028125 17.19375,10.2 C17.19375,14.334375 14.7375,15.24375 12.3984375,15.5109375 C12.7734375,15.84375 13.1109375,16.5 13.1109375,17.503125 C13.1109375,18.9421875 13.096875,20.1046875 13.096875,20.45625 C13.096875,20.709375 13.2421875,20.9953125 13.63125,20.9953125 C13.6875,20.9953125 13.753125,20.990625 13.81875,20.9765625 C17.9953125,19.55625 21,15.5203125 21,10.7671875 C21,4.8234375 16.2984375,0 10.5,0 L10.5,0 Z" id="Shape" fill="#000000" fill-rule="nonzero"></path>
                    </g>
                </g>
            </g>
        </g>
    </g>
</svg>