<?xml version="1.0" encoding="UTF-8"?>
<svg width="209px" height="209px" viewBox="0 0 209 209" version="1.1" xmlns="http://www.w3.org/2000/svg" xmlns:xlink="http://www.w3.org/1999/xlink">
    <title>Final</title>
    <defs>
        <linearGradient x1="84.2703349%" y1="104.022129%" x2="10.7767644%" y2="9.9805622%" id="linearGradient-1">
            <stop stop-color="#00F2FF" offset="0%"></stop>
            <stop stop-color="#FE48EB" offset="49.1504589%"></stop>
            <stop stop-color="#FEAE48" offset="100%"></stop>
        </linearGradient>
        <linearGradient x1="-23.2379855%" y1="-4.41723732%" x2="36.2727914%" y2="74.503171%" id="linearGradient-2">
            <stop stop-color="#00F2FF" offset="0%"></stop>
            <stop stop-color="#FE48EB" offset="49.4674585%"></stop>
            <stop stop-color="#FEAE48" offset="100%"></stop>
        </linearGradient>
        <path d="M73.8623047,147 L73.8623047,63.8994141 L65.0458984,63.8994141 L65.0458984,147 L73.8623047,147 Z M107.936523,147 L107.936523,111.376953 L133.075195,111.376953 C135.855143,111.376953 138.218099,111.754232 140.164062,112.508789 C142.110026,113.263346 143.688639,114.256185 144.899902,115.487305 C146.111165,116.718424 146.984863,118.118327 147.520996,119.687012 C148.057129,121.255697 148.325195,122.83431 148.325195,124.422852 L148.325195,124.422852 L148.325195,137.647461 C148.325195,138.243164 148.345052,138.948079 148.384766,139.762207 C148.424479,140.576335 148.503906,141.420247 148.623047,142.293945 C148.742188,143.167643 148.91097,144.011556 149.129395,144.825684 C149.347819,145.639811 149.655599,146.364583 150.052734,147 L150.052734,147 L159.643555,147 C158.888997,145.610026 158.263509,144.071126 157.76709,142.383301 C157.270671,140.695475 157.022461,138.958008 157.022461,137.170898 L157.022461,137.170898 L157.022461,124.601562 C157.022461,122.77474 156.873535,120.98763 156.575684,119.240234 C156.277832,117.492839 155.741699,115.874512 154.967285,114.385254 C154.192871,112.895996 153.120605,111.585449 151.750488,110.453613 C150.380371,109.321777 148.623047,108.477865 146.478516,107.921875 C148.384766,106.849609 150.072591,105.578776 151.541992,104.109375 C153.011393,102.639974 154.232585,101.021647 155.205566,99.2543945 C156.178548,97.4871419 156.913249,95.6106771 157.409668,93.625 C157.906087,91.6393229 158.154297,89.6139323 158.154297,87.5488281 C158.154297,84.7291667 157.608236,81.9095052 156.516113,79.0898438 C155.423991,76.2701823 153.815592,73.738444 151.690918,71.4946289 C149.566243,69.2508138 146.94515,67.4239909 143.827637,66.0141602 C140.710124,64.6043294 137.125977,63.8994141 133.075195,63.8994141 L133.075195,63.8994141 L99.1201172,63.8994141 L99.1201172,147 L107.936523,147 Z M133.075195,103.573242 L107.936523,103.573242 L107.936523,71.9414062 L133.075195,71.9414062 C135.378581,71.9414062 137.523112,72.3286133 139.508789,73.1030273 C141.494466,73.8774414 143.212077,74.9596354 144.661621,76.3496094 C146.111165,77.7395833 147.243001,79.3777669 148.057129,81.2641602 C148.871257,83.1505534 149.27832,85.2057292 149.27832,87.4296875 C149.27832,89.6933594 148.841471,91.7981771 147.967773,93.7441406 C147.094076,95.6901042 145.912598,97.3977865 144.42334,98.8671875 C142.934082,100.336589 141.216471,101.488281 139.270508,102.322266 C137.324544,103.15625 135.25944,103.573242 133.075195,103.573242 L133.075195,103.573242 Z" id="path-3"></path>
        <linearGradient x1="25.9884658%" y1="15.817929%" x2="161.48807%" y2="132.143049%" id="linearGradient-4">
            <stop stop-color="#00F2FF" offset="0%"></stop>
            <stop stop-color="#FE48EB" offset="58.0769051%"></stop>
            <stop stop-color="#FEAE48" offset="100%"></stop>
        </linearGradient>
        <path d="M67.8623047,147 L67.8623047,63.8994141 L59.0458984,63.8994141 L59.0458984,147 L67.8623047,147 Z M101.936523,147 L101.936523,111.376953 L127.075195,111.376953 C129.855143,111.376953 132.218099,111.754232 134.164062,112.508789 C136.110026,113.263346 137.688639,114.256185 138.899902,115.487305 C140.111165,116.718424 140.984863,118.118327 141.520996,119.687012 C142.057129,121.255697 142.325195,122.83431 142.325195,124.422852 L142.325195,124.422852 L142.325195,137.647461 C142.325195,138.243164 142.345052,138.948079 142.384766,139.762207 C142.424479,140.576335 142.503906,141.420247 142.623047,142.293945 C142.742188,143.167643 142.91097,144.011556 143.129395,144.825684 C143.347819,145.639811 143.655599,146.364583 144.052734,147 L144.052734,147 L153.643555,147 C152.888997,145.610026 152.263509,144.071126 151.76709,142.383301 C151.270671,140.695475 151.022461,138.958008 151.022461,137.170898 L151.022461,137.170898 L151.022461,124.601562 C151.022461,122.77474 150.873535,120.98763 150.575684,119.240234 C150.277832,117.492839 149.741699,115.874512 148.967285,114.385254 C148.192871,112.895996 147.120605,111.585449 145.750488,110.453613 C144.380371,109.321777 142.623047,108.477865 140.478516,107.921875 C142.384766,106.849609 144.072591,105.578776 145.541992,104.109375 C147.011393,102.639974 148.232585,101.021647 149.205566,99.2543945 C150.178548,97.4871419 150.913249,95.6106771 151.409668,93.625 C151.906087,91.6393229 152.154297,89.6139323 152.154297,87.5488281 C152.154297,84.7291667 151.608236,81.9095052 150.516113,79.0898438 C149.423991,76.2701823 147.815592,73.738444 145.690918,71.4946289 C143.566243,69.2508138 140.94515,67.4239909 137.827637,66.0141602 C134.710124,64.6043294 131.125977,63.8994141 127.075195,63.8994141 L127.075195,63.8994141 L93.1201172,63.8994141 L93.1201172,147 L101.936523,147 Z M127.075195,103.573242 L101.936523,103.573242 L101.936523,71.9414062 L127.075195,71.9414062 C129.378581,71.9414062 131.523112,72.3286133 133.508789,73.1030273 C135.494466,73.8774414 137.212077,74.9596354 138.661621,76.3496094 C140.111165,77.7395833 141.243001,79.3777669 142.057129,81.2641602 C142.871257,83.1505534 143.27832,85.2057292 143.27832,87.4296875 C143.27832,89.6933594 142.841471,91.7981771 141.967773,93.7441406 C141.094076,95.6901042 139.912598,97.3977865 138.42334,98.8671875 C136.934082,100.336589 135.216471,101.488281 133.270508,102.322266 C131.324544,103.15625 129.25944,103.573242 127.075195,103.573242 L127.075195,103.573242 Z" id="path-5"></path>
    </defs>
    <g id="Page-1" stroke="none" stroke-width="1" fill="none" fill-rule="evenodd">
        <g id="Profile-Photo" transform="translate(-96.000000, -96.000000)">
            <g id="Final" transform="translate(96.000000, 96.000000)">
                <path d="M104.5,4.61880215 L190.999655,54.5594011 L190.999655,154.440599 L104.5,204.381198 L18.0003453,154.440599 L18.0003453,54.5594011 L104.5,4.61880215 Z" id="Polygon" stroke="url(#linearGradient-1)" stroke-width="8"></path>
                <g id="IR" fill-rule="nonzero">
                    <use fill="#000000" xlink:href="#path-3"></use>
                    <use fill="url(#linearGradient-2)" xlink:href="#path-3"></use>
                </g>
                <g id="IR" fill-rule="nonzero">
                    <use fill="#000000" xlink:href="#path-5"></use>
                    <use fill="url(#linearGradient-4)" xlink:href="#path-5"></use>
                </g>
            </g>
        </g>
    </g>
</svg>